<svg width="70" height="70" viewBox="0 0 70 70" fill="none" xmlns="http://www.w3.org/2000/svg">
<mask id="path-1-inside-1" fill="white">
<path d="M35 0C15.7015 0 0 15.7002 0 35C0 54.2998 15.7015 70 35 70C54.2985 70 70 54.2998 70 35C70 15.7002 54.2985 0 35 0ZM35 67.3077C17.1863 67.3077 2.69231 52.8137 2.69231 35C2.69231 17.1863 17.1863 2.69231 35 2.69231C52.8137 2.69231 67.3077 17.1863 67.3077 35C67.3077 52.8137 52.8137 67.3077 35 67.3077Z"/>
</mask>
<path d="M35 0C15.7015 0 0 15.7002 0 35C0 54.2998 15.7015 70 35 70C54.2985 70 70 54.2998 70 35C70 15.7002 54.2985 0 35 0ZM35 67.3077C17.1863 67.3077 2.69231 52.8137 2.69231 35C2.69231 17.1863 17.1863 2.69231 35 2.69231C52.8137 2.69231 67.3077 17.1863 67.3077 35C67.3077 52.8137 52.8137 67.3077 35 67.3077Z" fill="#FFFDFD"/>
<path d="M35 -10C10.1789 -10 -10 10.1771 -10 35H10C10 21.2233 21.2241 10 35 10V-10ZM-10 35C-10 59.8229 10.1789 80 35 80V60C21.2241 60 10 48.7767 10 35H-10ZM35 80C59.8211 80 80 59.8229 80 35H60C60 48.7767 48.7759 60 35 60V80ZM80 35C80 10.1771 59.8211 -10 35 -10V10C48.7759 10 60 21.2233 60 35H80ZM35 57.3077C22.7092 57.3077 12.6923 47.2908 12.6923 35H-7.30769C-7.30769 58.3365 11.6635 77.3077 35 77.3077V57.3077ZM12.6923 35C12.6923 22.7092 22.7092 12.6923 35 12.6923V-7.30769C11.6635 -7.30769 -7.30769 11.6635 -7.30769 35H12.6923ZM35 12.6923C47.2908 12.6923 57.3077 22.7092 57.3077 35H77.3077C77.3077 11.6635 58.3365 -7.30769 35 -7.30769V12.6923ZM57.3077 35C57.3077 47.2908 47.2908 57.3077 35 57.3077V77.3077C58.3365 77.3077 77.3077 58.3365 77.3077 35H57.3077Z" fill="white" mask="url(#path-1-inside-1)"/>
<mask id="path-3-inside-2" fill="white">
<path d="M51.6665 33H36.3332V18.3333C36.3332 17.596 35.7359 17 34.9999 17C34.2639 17 33.6665 17.596 33.6665 18.3333V33H18.3332C17.5972 33 16.9999 33.596 16.9999 34.3333C16.9999 35.0707 17.5972 35.6667 18.3332 35.6667H33.6665V51.6667C33.6665 52.404 34.2639 53 34.9999 53C35.7359 53 36.3332 52.404 36.3332 51.6667V35.6667H51.6665C52.4025 35.6667 52.9999 35.0707 52.9999 34.3333C52.9999 33.596 52.4025 33 51.6665 33Z"/>
</mask>
<path d="M51.6665 33H36.3332V18.3333C36.3332 17.596 35.7359 17 34.9999 17C34.2639 17 33.6665 17.596 33.6665 18.3333V33H18.3332C17.5972 33 16.9999 33.596 16.9999 34.3333C16.9999 35.0707 17.5972 35.6667 18.3332 35.6667H33.6665V51.6667C33.6665 52.404 34.2639 53 34.9999 53C35.7359 53 36.3332 52.404 36.3332 51.6667V35.6667H51.6665C52.4025 35.6667 52.9999 35.0707 52.9999 34.3333C52.9999 33.596 52.4025 33 51.6665 33Z" fill="#FFFDFD"/>
<path d="M36.3332 33H26.3332V43H36.3332V33ZM33.6665 33V43H43.6665V33H33.6665ZM33.6665 35.6667H43.6665V25.6667H33.6665V35.6667ZM36.3332 35.6667V25.6667H26.3332V35.6667H36.3332ZM51.6665 23H36.3332V43H51.6665V23ZM46.3332 33V18.3333H26.3332V33H46.3332ZM46.3332 18.3333C46.3332 12.0666 41.2522 7 34.9999 7V27C30.2195 27 26.3332 23.1254 26.3332 18.3333H46.3332ZM34.9999 7C28.7475 7 23.6665 12.0666 23.6665 18.3333H43.6665C43.6665 23.1254 39.7802 27 34.9999 27V7ZM23.6665 18.3333V33H43.6665V18.3333H23.6665ZM33.6665 23H18.3332V43H33.6665V23ZM18.3332 23C12.0809 23 6.99988 28.0666 6.99988 34.3333H26.9999C26.9999 39.1254 23.1135 43 18.3332 43V23ZM6.99988 34.3333C6.99988 40.6 12.0809 45.6667 18.3332 45.6667V25.6667C23.1135 25.6667 26.9999 29.5413 26.9999 34.3333H6.99988ZM18.3332 45.6667H33.6665V25.6667H18.3332V45.6667ZM23.6665 35.6667V51.6667H43.6665V35.6667H23.6665ZM23.6665 51.6667C23.6665 57.9334 28.7475 63 34.9999 63V43C39.7802 43 43.6665 46.8746 43.6665 51.6667H23.6665ZM34.9999 63C41.2522 63 46.3332 57.9334 46.3332 51.6667H26.3332C26.3332 46.8746 30.2195 43 34.9999 43V63ZM46.3332 51.6667V35.6667H26.3332V51.6667H46.3332ZM36.3332 45.6667H51.6665V25.6667H36.3332V45.6667ZM51.6665 45.6667C57.9189 45.6667 62.9999 40.6 62.9999 34.3333H42.9999C42.9999 29.5413 46.8862 25.6667 51.6665 25.6667V45.6667ZM62.9999 34.3333C62.9999 28.0666 57.9189 23 51.6665 23V43C46.8862 43 42.9999 39.1254 42.9999 34.3333H62.9999Z" fill="white" mask="url(#path-3-inside-2)"/>
</svg>
