<svg width="70" height="70" viewBox="0 0 70 70" fill="none" xmlns="http://www.w3.org/2000/svg">
<circle cx="35" cy="35" r="33.5" stroke="#ECF0F1" stroke-width="3"/>
<path fill-rule="evenodd" clip-rule="evenodd" d="M21.7692 32.3766H53.5775C54.9154 32.3766 56 33.4612 56 34.7991C56 36.1371 54.9154 37.2216 53.5775 37.2216H22.359L35.8092 50.8645C36.7419 51.8105 36.7419 53.3444 35.8092 54.2905C34.8765 55.2365 33.3643 55.2365 32.4317 54.2905L14.6995 36.3043C14.21 35.8079 13.9774 35.1495 14.0017 34.4991C13.9779 33.8494 14.2105 33.1917 14.6996 32.6957L32.4317 14.7095C33.3644 13.7635 34.8766 13.7635 35.8093 14.7095C36.7419 15.6556 36.7419 17.1894 35.8093 18.1354L21.7692 32.3766Z" fill="#ECF0F1"/>
</svg>
