<svg width="70" height="70" viewBox="0 0 70 70" fill="none" xmlns="http://www.w3.org/2000/svg">
<path d="M35 0C15.7015 0 0 15.7002 0 35C0 54.2998 15.7015 70 35 70C54.2985 70 70 54.2998 70 35C70 15.7002 54.2985 0 35 0ZM35 67.3077C17.1863 67.3077 2.69231 52.8137 2.69231 35C2.69231 17.1863 17.1863 2.69231 35 2.69231C52.8137 2.69231 67.3077 17.1863 67.3077 35C67.3077 52.8137 52.8137 67.3077 35 67.3077Z" fill="#555561"/>
<path d="M48.0671 21.9329C47.5407 21.4065 46.69 21.4065 46.1636 21.9329L35 33.0965L23.8363 21.9329C23.31 21.4065 22.4592 21.4065 21.9328 21.9329C21.4065 22.4592 21.4065 23.31 21.9328 23.8364L33.0965 35L21.9328 46.1637C21.4065 46.69 21.4065 47.5408 21.9328 48.0671C22.1953 48.3296 22.54 48.4615 22.8846 48.4615C23.2292 48.4615 23.5738 48.3296 23.8363 48.0671L35 36.9035L46.1636 48.0671C46.4261 48.3296 46.7707 48.4615 47.1154 48.4615C47.46 48.4615 47.8046 48.3296 48.0671 48.0671C48.5934 47.5408 48.5934 46.69 48.0671 46.1637L36.9034 35L48.0671 23.8364C48.5934 23.31 48.5934 22.4592 48.0671 21.9329Z" fill="#555561"/>
</svg>
