<?xml version="1.0" encoding="utf-8"?>
<!-- Svg Vector Icons : http://www.onlinewebfonts.com/icon -->
<!DOCTYPE svg PUBLIC "-//W3C//DTD SVG 1.1//EN" "http://www.w3.org/Graphics/SVG/1.1/DTD/svg11.dtd">
<svg version="1.1" xmlns="http://www.w3.org/2000/svg" xmlns:xlink="http://www.w3.org/1999/xlink" x="0px" y="0px" viewBox="0 0 1000 1000" enable-background="new 0 0 1000 1000" xml:space="preserve">
<metadata> Svg Vector Icons : http://www.onlinewebfonts.com/icon </metadata>
<g><path d="M500,990C229.4,990,10,770.5,10,500C10,229.4,229.4,10,500,10c270.5,0,490,219.4,490,490C990,770.5,770.6,990,500,990z M101.9,499.9c0,219.9,178.2,398.2,398.2,398.2c93.4,0,179.1-32.4,246.9-86.2L188.1,253C134.3,320.9,101.9,406.6,101.9,499.9z M500,101.8c-93.4,0-179.1,32.4-247,86.2l558.8,558.9c53.9-67.9,86.2-153.5,86.2-247C898.2,280.1,719.9,101.8,500,101.8z"/></g>
</svg>