<svg width="70" height="73" viewBox="0 0 70 73" fill="none" xmlns="http://www.w3.org/2000/svg">
<circle cx="35" cy="38" r="33.5" stroke="#555561" stroke-width="3"/>
<path d="M61.0894 37.3487C60.9825 37.2132 58.4145 33.9918 54.0119 30.7573C48.1288 26.435 41.7274 24.1503 35.4998 24.1503C29.2725 24.1503 22.8711 26.435 16.9878 30.7573C12.5853 33.9916 10.0173 37.2132 9.91022 37.3487L9 38.4999L9.91034 39.6513C10.0174 39.7868 12.5854 43.0083 16.9879 46.2428C22.8712 50.565 29.2726 52.8497 35.4999 52.8497C41.7274 52.8497 48.1288 50.565 54.0119 46.2428C58.4145 43.0083 60.9825 39.7868 61.0894 39.6513L62 38.4999L61.0894 37.3487ZM35.4998 48.5526C29.9568 48.5526 25.4471 44.0431 25.4471 38.4999C25.4471 37.6315 25.5578 36.7884 25.7658 35.984L23.4707 35.5978C23.2459 36.5289 23.1266 37.5007 23.1266 38.4999C23.1266 42.0805 24.6561 45.3102 27.0951 47.5716C23.9554 46.4118 21.2855 44.7844 19.2705 43.3125C16.7741 41.4891 14.9032 39.645 13.8365 38.4999C14.9036 37.3545 16.7743 35.5106 19.2705 33.6874C21.2855 32.2155 23.9555 30.588 27.0951 29.4281L28.6348 31.1636C30.433 29.4799 32.8479 28.4472 35.4998 28.4472C41.0428 28.4472 45.5524 32.9568 45.5524 38.4999C45.5524 44.0431 41.0428 48.5526 35.4998 48.5526ZM51.7292 43.3125C49.7139 44.7844 47.0442 46.4118 43.9045 47.5716C46.3435 45.3103 47.8729 42.0806 47.8729 38.4998C47.8729 34.919 46.3435 31.6895 43.9045 29.428C47.0443 30.5879 49.7139 32.2154 51.7292 33.6873C54.2256 35.5106 56.0965 37.3548 57.1631 38.4997C56.096 39.6453 54.2253 41.4893 51.7292 43.3125Z" fill="#555561"/>
<path d="M29.1026 36.5458C28.914 37.1641 28.8118 37.82 28.8118 38.5001C28.8118 42.1936 31.806 45.188 35.4997 45.188C39.1933 45.188 42.1876 42.1937 42.1876 38.5001C42.1876 34.8064 39.1933 31.8121 35.4997 31.8121C33.7006 31.8121 32.0687 32.5238 30.8666 33.6794L34.1654 37.3978L29.1026 36.5458Z" fill="#555561"/>
</svg>
