<svg width="70" height="70" viewBox="0 0 70 70" fill="none" xmlns="http://www.w3.org/2000/svg">
<circle cx="35" cy="35" r="33.5" stroke="#555561" stroke-width="3"/>
<path d="M54.3236 30.8527L35.6061 15.4788C35.2451 15.1824 34.7548 15.1824 34.394 15.4788L15.6763 30.8527C15.2191 31.2283 15.1198 31.9485 15.4546 32.4613C15.7894 32.9742 16.4314 33.0855 16.8886 32.7101L34.9999 17.8339L53.1113 32.71C53.294 32.8601 53.5062 32.9324 53.7166 32.9324C54.0325 32.9324 54.3442 32.7693 54.5452 32.4613C54.8801 31.9485 54.7807 31.2283 54.3236 30.8527Z" fill="#555561"/>
<path d="M49.3639 28.4054C48.7974 28.4054 48.338 28.9207 48.338 29.5563V47.8764H40.1303V37.8761C40.1303 34.7027 37.8288 32.121 35.0001 32.121C32.1714 32.121 29.8699 34.7029 29.8699 37.8761V47.8765H21.6622V29.5564C21.6622 28.9208 21.2027 28.4055 20.6362 28.4055C20.0697 28.4055 19.6102 28.9208 19.6102 29.5564V49.0275C19.6102 49.6632 20.0697 50.1785 20.6362 50.1785H30.8958C31.4354 50.1785 31.8769 49.7108 31.9178 49.1171C31.9203 49.0902 31.9218 49.0608 31.9218 49.0275V37.8762C31.9218 35.9721 33.3027 34.423 35.0001 34.423C36.6975 34.423 38.0784 35.9722 38.0784 37.8762V49.0275C38.0784 49.0606 38.0799 49.0895 38.0824 49.1161C38.1228 49.7102 38.5645 50.1785 39.1044 50.1785H49.364C49.9306 50.1785 50.39 49.6632 50.39 49.0275V29.5564C50.3899 28.9207 49.9306 28.4054 49.3639 28.4054Z" fill="#555561"/>
</svg>
