<svg width="70" height="70" viewBox="0 0 70 70" fill="none" xmlns="http://www.w3.org/2000/svg">
<circle cx="35" cy="35" r="33.5" stroke="#737272" stroke-width="3"/>
<path d="M54.3236 30.8527L35.6061 15.4787C35.2451 15.1823 34.7548 15.1823 34.394 15.4787L15.6763 30.8527C15.2191 31.2282 15.1198 31.9484 15.4546 32.4613C15.7894 32.9742 16.4314 33.0854 16.8886 32.71L34.9999 17.8338L53.1113 32.7099C53.294 32.86 53.5062 32.9323 53.7166 32.9323C54.0325 32.9323 54.3442 32.7692 54.5452 32.4612C54.8801 31.9484 54.7807 31.2282 54.3236 30.8527Z" fill="#737272"/>
<path d="M49.3639 28.4053C48.7974 28.4053 48.338 28.9206 48.338 29.5562V47.8763H40.1303V37.876C40.1303 34.7026 37.8288 32.1209 35.0001 32.1209C32.1714 32.1209 29.8699 34.7027 29.8699 37.876V47.8764H21.6622V29.5563C21.6622 28.9207 21.2027 28.4054 20.6362 28.4054C20.0697 28.4054 19.6102 28.9207 19.6102 29.5563V49.0274C19.6102 49.663 20.0697 50.1783 20.6362 50.1783H30.8958C31.4354 50.1783 31.8769 49.7107 31.9178 49.117C31.9203 49.0901 31.9218 49.0607 31.9218 49.0274V37.8761C31.9218 35.9719 33.3027 34.4228 35.0001 34.4228C36.6975 34.4228 38.0784 35.972 38.0784 37.8761V49.0274C38.0784 49.0605 38.0799 49.0894 38.0824 49.116C38.1228 49.7101 38.5645 50.1783 39.1044 50.1783H49.364C49.9306 50.1783 50.39 49.663 50.39 49.0274V29.5563C50.3899 28.9206 49.9306 28.4053 49.3639 28.4053Z" fill="#737272"/>
</svg>
