<?xml version="1.0" encoding="utf-8"?>
<!-- Svg Vector Icons : http://www.onlinewebfonts.com/icon -->
<!DOCTYPE svg PUBLIC "-//W3C//DTD SVG 1.1//EN" "http://www.w3.org/Graphics/SVG/1.1/DTD/svg11.dtd">
<svg version="1.1" xmlns="http://www.w3.org/2000/svg" xmlns:xlink="http://www.w3.org/1999/xlink" x="0px" y="0px" viewBox="0 0 1000 1000" enable-background="new 0 0 1000 1000" xml:space="preserve">
<metadata> Svg Vector Icons : http://www.onlinewebfonts.com/icon </metadata>
<g><g transform="translate(0.000000,511.000000) scale(0.100000,-0.100000)"><path d="M3290.6,4887.4c-39-23.9-88.9-73.7-112.8-112.8c-41.2-69.4-43.4-112.7-43.4-1517.8V1808.4h336.1h336.1v1225.1v1225.1h2205.2c1290.2,0,2196.5-8.7,2183.5-19.5c-10.8-10.8-351.3-206-756.7-435.8c-405.5-229.8-813.1-461.9-906.4-516.1c-281.9-167-253.7,164.8-253.7-2970.6v-2693.1H5042.6h-1236v943.2V-490h-336.1h-336.1v-1168.7v-1166.6l49.9-71.5c26-41.2,82.4-93.2,123.6-117.1c73.7-45.5,108.4-45.5,1522.2-52l1446.3-6.5l6.5-709l6.5-709l52.1-73.7c69.4-97.6,219-162.6,325.2-143.1c71.6,13,331.8,156.1,2294.1,1270.6c396.8,225.5,728.5,409.8,739.4,409.8c41.2,0,160.5,151.8,180,229.9c28.2,127.9,26,7370.1-4.3,7478.6c-13,47.7-45.5,110.6-69.4,136.6c-110.6,119.3,84.6,112.8-3304.5,112.8C3407.7,4930.8,3362.1,4930.8,3290.6,4887.4z"/><path d="M2024.3,2161.9C1558.1,1843.1,140,791.5,122.7,750.3c-39-82.4-28.2-151.8,36.9-219c32.5-34.7,487.9-373,1012.6-752.4c860.8-622.3,960.6-691.7,1036.5-691.7c65,0,97.6,15.2,136.6,60.7c52,60.7,52,65,52,546.4V180l993.1,6.5l990.9,6.5l104.1,60.7c140.9,82.4,216.8,201.7,227.7,362.1c10.8,154-21.7,260.2-110.6,362.1c-140.9,158.3-125.8,158.3-1222.9,158.3h-982.2v494.4c-2.2,516.1-4.3,535.6-101.9,585.4C2215.1,2259.4,2147.9,2246.4,2024.3,2161.9z"/></g></g>
</svg>
