<svg width="50" height="50" viewBox="0 0 50 50" fill="none" xmlns="http://www.w3.org/2000/svg">
<rect width="50" height="50" rx="10" fill="black"/>
<path d="M42 15.7146H40.1239C39.6354 15.7146 38.3572 16.2558 38.3572 16.7164V33.4454C38.3572 33.9072 39.6354 34.2858 40.1239 34.2858H42V38H29.8571V34.2858H32.2863V16.9521H31.8635L26.0182 37.9999H21.4925L15.7228 16.9521H15.2858V34.2857H17.7139V37.9999H8V34.2857H9.34725C9.87616 34.2857 10.4282 33.9072 10.4282 33.4453V16.7164C10.4282 16.2557 9.87623 15.7146 9.34725 15.7146H8V12H20.5889L24.6993 26.857H24.8099L28.9609 12H42V15.7146Z" fill="white"/>
</svg>
