<svg width="70" height="82" viewBox="0 0 70 82" fill="none" xmlns="http://www.w3.org/2000/svg">
<circle cx="35" cy="47" r="33.5" stroke="#555555" stroke-width="3"/>
<path d="M34.9988 67C35.8617 67 36.5613 66.3004 36.5613 65.4375C36.5613 64.5746 35.8617 63.875 34.9988 63.875C34.1358 63.875 33.4363 64.5746 33.4363 65.4375C33.4363 66.3004 34.1358 67 34.9988 67Z" fill="#555561"/>
<path d="M47.264 39.1699C47.2126 32.4504 41.7303 27 34.9988 27C28.2355 27 22.7332 32.5023 22.7332 39.2656C22.7332 40.1286 23.4327 40.8281 24.2957 40.8281C25.1586 40.8281 25.8582 40.1286 25.8582 39.2656C25.8582 34.2255 29.9586 30.125 34.9988 30.125C40.0389 30.125 44.1394 34.2255 44.1394 39.2656C44.1394 39.2934 44.1401 39.3211 44.1416 39.3486C44.1099 42.9862 41.9364 46.2508 38.5853 47.6815C35.4574 49.017 33.4363 52.1092 33.4363 55.5595V59.1875C33.4363 60.0505 34.1358 60.75 34.9988 60.75C35.8617 60.75 36.5613 60.0505 36.5613 59.1875V55.5595C36.5613 53.3629 37.8374 51.3987 39.8124 50.5555C44.342 48.6216 47.2681 44.19 47.2669 39.2652C47.2669 39.2332 47.2659 39.2015 47.264 39.1699Z" fill="#555561"/>
</svg>
