<svg width="70" height="70" viewBox="0 0 70 70" fill="none" xmlns="http://www.w3.org/2000/svg">
<circle cx="35" cy="35" r="33.5" stroke="#555561" stroke-width="3"/>
<path d="M34.9988 55C35.8617 55 36.5613 54.3004 36.5613 53.4375C36.5613 52.5746 35.8617 51.875 34.9988 51.875C34.1358 51.875 33.4363 52.5746 33.4363 53.4375C33.4363 54.3004 34.1358 55 34.9988 55Z" fill="#555561"/>
<path d="M47.264 27.1699C47.2126 20.4504 41.7303 15 34.9988 15C28.2355 15 22.7332 20.5023 22.7332 27.2656C22.7332 28.1286 23.4327 28.8281 24.2957 28.8281C25.1586 28.8281 25.8582 28.1286 25.8582 27.2656C25.8582 22.2255 29.9586 18.125 34.9988 18.125C40.0389 18.125 44.1394 22.2255 44.1394 27.2656C44.1394 27.2934 44.1401 27.3211 44.1416 27.3486C44.1099 30.9862 41.9364 34.2508 38.5853 35.6815C35.4574 37.017 33.4363 40.1092 33.4363 43.5595V47.1875C33.4363 48.0505 34.1358 48.75 34.9988 48.75C35.8617 48.75 36.5613 48.0505 36.5613 47.1875V43.5595C36.5613 41.3629 37.8374 39.3987 39.8124 38.5555C44.342 36.6216 47.2681 32.19 47.2669 27.2652C47.2669 27.2332 47.2659 27.2015 47.264 27.1699Z" fill="#555561"/>
</svg>
