<svg width="50" height="50" viewBox="0 0 50 50" fill="none" xmlns="http://www.w3.org/2000/svg">
<path d="M47.2496 2.7504C45.4165 0.916912 43.208 0 40.6257 0H9.37507C6.79281 0 4.58429 0.916912 2.75044 2.7504C0.916927 4.58422 0 6.79259 0 9.37492V40.6247C0 43.2068 0.916927 45.4154 2.75044 47.2493C4.58429 49.0831 6.79281 50 9.37507 50H40.6254C43.2076 50 45.4162 49.0831 47.2492 47.2493C49.0831 45.4154 50 43.207 50 40.6247V9.37492C49.9999 6.79259 49.083 4.58388 47.2496 2.7504ZM38.2492 19.2384C38.2709 19.4337 38.282 19.7262 38.282 20.1175C38.282 21.9405 38.0159 23.7688 37.4844 25.6021C36.953 27.4362 36.139 29.194 35.0426 30.8757C33.9474 32.5573 32.6398 34.0443 31.1209 35.3354C29.6016 36.6261 27.7789 37.6574 25.6517 38.4272C23.5255 39.1982 21.2464 39.5837 18.816 39.5837C15.0402 39.5837 11.5463 38.563 8.33432 36.5239C8.85515 36.5887 9.39799 36.6214 9.96192 36.6214C13.1088 36.6214 15.9409 35.6449 18.4584 33.6912C16.9829 33.6701 15.6643 33.2148 14.5033 32.3241C13.3421 31.4344 12.5339 30.3061 12.0781 28.9388C12.6421 29.0255 13.0652 29.0685 13.3473 29.0685C13.8247 29.0685 14.3783 28.9818 15.0074 28.8086C13.4233 28.5043 12.0888 27.7184 11.0037 26.4489C9.91836 25.1792 9.37587 23.7307 9.37587 22.1033V22.0382C10.5257 22.5803 11.6108 22.8624 12.6309 22.8844C10.6561 21.5603 9.66867 19.6617 9.66867 17.1878C9.66867 15.9724 9.98313 14.8224 10.6125 13.7373C12.3268 15.8424 14.4105 17.5241 16.8625 18.7827C19.3146 20.0412 21.9408 20.7468 24.7402 20.8986C24.6318 20.4863 24.5775 19.9652 24.5775 19.3361C24.5775 17.4478 25.2448 15.8367 26.5796 14.502C27.9139 13.1673 29.5255 12.4997 31.4132 12.4997C33.4103 12.4997 35.0708 13.2161 36.3944 14.6485C37.8919 14.3664 39.3466 13.8127 40.7567 12.9884C40.2144 14.659 39.2046 15.9286 37.7296 16.7968C39.1397 16.6011 40.4523 16.2324 41.6674 15.6899C40.7561 17.0787 39.6163 18.2614 38.2492 19.2384Z" fill="black"/>
</svg>
