<svg width="40" height="40" viewBox="0 0 40 40" fill="none" xmlns="http://www.w3.org/2000/svg">
<path d="M19.9988 40C20.8617 40 21.5613 39.3004 21.5613 38.4375C21.5613 37.5746 20.8617 36.875 19.9988 36.875C19.1358 36.875 18.4363 37.5746 18.4363 38.4375C18.4363 39.3004 19.1358 40 19.9988 40Z" fill="#555561"/>
<path d="M32.264 12.1699C32.2126 5.45039 26.7303 0 19.9988 0C13.2355 0 7.73315 5.50234 7.73315 12.2656C7.73315 13.1286 8.43269 13.8281 9.29565 13.8281C10.1586 13.8281 10.8582 13.1286 10.8582 12.2656C10.8582 7.22547 14.9586 3.125 19.9988 3.125C25.0389 3.125 29.1394 7.22547 29.1394 12.2656C29.1394 12.2934 29.1401 12.3211 29.1416 12.3486C29.1099 15.9862 26.9364 19.2508 23.5853 20.6815C20.4574 22.017 18.4363 25.1092 18.4363 28.5595V32.1875C18.4363 33.0505 19.1358 33.75 19.9988 33.75C20.8617 33.75 21.5613 33.0505 21.5613 32.1875V28.5595C21.5613 26.3629 22.8374 24.3987 24.8124 23.5555C29.342 21.6216 32.2681 17.19 32.2669 12.2652C32.2669 12.2332 32.2659 12.2015 32.264 12.1699Z" fill="#555561"/>
</svg>
